<svg xmlns="http://www.w3.org/2000/svg" width="64" height="64" viewBox="0 0 64 64" fill="none">
  <defs>
    <linearGradient id="fg" x1="12" y1="8" x2="52" y2="56" gradientUnits="userSpaceOnUse">
      <stop offset="0" stop-color="#3B82F6" />
      <stop offset="1" stop-color="#A855F7" />
    </linearGradient>
    <linearGradient id="bg" x1="0" y1="0" x2="64" y2="64" gradientUnits="userSpaceOnUse">
      <stop offset="0" stop-color="#0F172A" />
      <stop offset="1" stop-color="#1E293B" />
    </linearGradient>
  </defs>
  <rect width="64" height="64" rx="16" fill="url(#bg)" />
  <path
    d="M20 20h14a6 6 0 0 1 0 12H28l-4 6v-6h-4v-12Zm18 0h6a6 6 0 0 1 0 12h-4l-2 3.5V32h-0.5a6.5 6.5 0 0 1 0-12Z"
    stroke="url(#fg)"
    stroke-width="3"
    stroke-linecap="round"
    stroke-linejoin="round"
    fill="none"
  />
  <circle cx="24" cy="26" r="1.6" fill="#F8FAFC" />
  <circle cx="44" cy="26" r="1.6" fill="#F8FAFC" />
  <path d="M24 30h4" stroke="#F8FAFC" stroke-width="2" stroke-linecap="round" />
  <path d="M40 30h4" stroke="#F8FAFC" stroke-width="2" stroke-linecap="round" />
</svg>

